<?xml version="1.0" encoding="utf-8"?>
<!-- Generator: Adobe Illustrator 24.1.1, SVG Export Plug-In . SVG Version: 6.00 Build 0)  -->
<svg version="1.1" id="Layer_1" xmlns="http://www.w3.org/2000/svg" xmlns:xlink="http://www.w3.org/1999/xlink" x="0px" y="0px"
	 viewBox="0 0 512 512" style="enable-background:new 0 0 512 512;" xml:space="preserve">
<style type="text/css">
	.st0{fill-rule:evenodd;clip-rule:evenodd;fill:#AAAAAA;}
</style>
<g>
	<path class="st0" d="M331.3,81.8C349.2,60.1,361.2,30,357.9,0c-25.8,1-56.9,17.2-75.4,38.8C265.9,58,251.4,88.6,255.4,118
		C284.1,120.2,313.4,103.4,331.3,81.8 M395.7,272c0.7,77.5,68,103.3,68.7,103.6c-0.6,1.8-10.7,36.7-35.4,72.8
		c-21.3,31.2-43.5,62.3-78.4,62.9c-34.3,0.6-45.3-20.3-84.5-20.3c-39.2,0-51.4,19.7-83.9,21c-33.7,1.3-59.3-33.7-80.8-64.8
		c-44-63.6-77.6-179.6-32.4-258c22.4-38.9,62.5-63.6,105.9-64.2c33.1-0.6,64.3,22.3,84.5,22.3c20.2,0,58.1-27.5,98-23.5
		c16.7,0.7,63.6,6.7,93.7,50.8C448.6,176.1,395.2,207.2,395.7,272"/>
</g>
</svg>
