<?xml version="1.0" encoding="utf-8"?>
<!-- Generator: Adobe Illustrator 24.3.0, SVG Export Plug-In . SVG Version: 6.00 Build 0)  -->
<svg version="1.1" id="Layer_1" xmlns="http://www.w3.org/2000/svg" xmlns:xlink="http://www.w3.org/1999/xlink" x="0px" y="0px"
	 viewBox="0 0 512 512" style="enable-background:new 0 0 512 512;" xml:space="preserve">
<g id="XMLID_1_">
	<path id="XMLID_4_" d="M120.27,162.89l33.52-18.37c0,0-13.74-24.26-51.61-23.14c0,0-44.59,1.26-46.84,41.93
		c0,0,0,38.42,49.92,41.79c0,0,27.63,1.26,45.44-18.93l-1.68-5.75c0,0-8.55,16.55-29.59,16.13c0,0-30.99-0.98-32.39-33.52
		c0,0,0.28-30.15,31.27-33.24c0,0,11.22-1.4,20.9,5.47L120.27,162.89z"/>
	<path id="XMLID_9_" d="M179.87,180.7c0.28-2.8,2.1-11.08,12.48-10.8c0,0,11.08-1.12,12.2,11.36c0,0,2.1,12.48-12.2,13.74
		C192.21,195,178.61,194.44,179.87,180.7z M154.77,180.28c-0.28,2.8-0.14,10.1,6.31,16.13c0,0,9.4,8.13,21.32,7.29
		c0,0,18.37,0.28,23.98-14.58l3.79,13.46h24.54L219,148.3c0,0-5.19-15.43-23-11.36l-31.55,10.8h31.27l5.61,21.04
		c0,0-3.79-7.57-23-7.29C177.91,161.49,156.59,162.75,154.77,180.28z"/>
	<path id="XMLID_10_" d="M243.4,148.58h-15.15l23-11.08c0,0,8.41-4.35,13.74,3.51l3.23,5.19l20.19-8.69c0,0,5.61-3.23,12.48,2.1
		c0,0,3.51,3.79,3.79,8.98v53.71h-25.1v-48.52c0,0-1.12-6.45-6.45-5.61c0,0-4.91,0-5.19,5.19v48.8H243.4V148.58z"/>
	<path id="XMLID_13_" d="M346.05,134.84c0,0-37.44,2.8-32.11,42.35c1.12,4.77,7.01,23,29.87,26.5c0,0,27.77,4.35,37.3-26.5
		C381.11,177.19,388.96,137.79,346.05,134.84z M356.01,198.23c0,0-7.29,2.38-9.4-4.63l-7.15-23.98l-5.75-19.21
		c0,0-1.4-7.29,4.91-9.12c0,0,5.19-3.23,9.12,4.35l12.48,43.19C360.36,188.83,362.18,196.12,356.01,198.23z"/>
	<path id="XMLID_14_" d="M395.41,148.87h-15.15l23-11.08c0,0,8.41-4.35,13.74,3.51l3.23,5.19l20.19-8.69c0,0,5.47-3.23,12.62,2.1
		c0,0,3.51,3.79,3.79,9.12v53.71h-25.1v-48.52c0,0-1.12-6.45-6.45-5.61c0,0-4.91,0-5.19,5.33v48.8h-24.54v-53.85H395.41z"/>
	<path id="XMLID_15_" d="M33.61,293.31c0-2.24,0.14-9.54,1.12-14.16c2.38-11.36,8.69-16.13,22.86-18.09
		c8.41-1.26,17.81-1.68,34.36-1.68c15.29,0,43.19,1.68,60.72,3.37v-28.05c-19.91-1.96-46.14-2.94-64.65-2.94
		c-27.35,0-42.63,1.54-55.53,5.75c-19.63,6.31-30.15,21.6-31.55,44.59c-0.42,8.83-0.98,18.65-0.98,28.47
		c0,9.82,0.56,19.63,0.98,28.47c1.26,23,11.92,38.28,31.41,44.59c12.9,4.21,28.05,5.75,55.53,5.75c18.65,0,44.74-0.98,64.65-2.94
		v-28.05c-17.53,1.68-45.44,3.37-60.72,3.37c-16.55,0-26.08-0.42-34.36-1.68c-14.16-2.1-20.47-6.73-22.86-18.09
		c-0.98-4.63-1.12-11.78-1.12-14.16v-4.07h116.4v-27.63H33.47v-2.8H33.61z"/>
	<path id="XMLID_16_" d="M392.75,235.25c9.68-2.24,32.67-3.65,45.58-3.65c21.88,0,42.49,0.98,67.87,3.93v29.45
		c-25.8-4.63-44.31-6.17-70.12-6.17c-10.38,0-19.77,0.42-28.33,1.4c-12.06,1.4-16.13,7.01-16.13,16.55
		c0,9.54,4.07,15.15,16.13,16.55c9.12,1.12,19.21,1.4,30.57,1.4l0,0c13.18,0.28,31.97,1.54,40.53,3.65
		c23.98,5.75,33.1,22.16,33.1,43.61c0,21.46-9.12,37.72-33.1,43.61c-9.68,2.24-32.67,3.65-45.58,3.65
		c-27.21,0-45.86-0.98-71.38-3.93v-29.45c26.5,4.77,44.45,6.17,71.38,6.17c11.36,0,21.32-0.28,30.57-1.4
		c12.06-1.54,16.13-7.01,16.13-16.97s-4.07-15.57-16.13-16.97c-9.12-1.12-19.21-1.4-30.57-1.4l0,0
		c-13.18-0.28-31.97-1.54-40.53-3.65c-23.98-5.75-33.1-22.02-33.1-43.05C359.65,257.41,368.77,241,392.75,235.25z"/>
	<path id="XMLID_19_" d="M167.95,310.42c0-9.82,0.56-21.04,0.98-29.87c1.26-23,11.92-38.28,31.55-44.59
		c12.9-4.21,28.05-5.75,55.53-5.75s42.63,1.54,55.53,5.75c19.63,6.31,30.15,21.6,31.55,44.59c0.42,8.83,0.98,20.19,0.98,29.87
		c0,9.82-0.56,21.04-0.98,29.87c-1.26,23-11.92,38.28-31.55,44.59c-12.9,4.21-28.05,5.75-55.53,5.75s-42.63-1.54-55.53-5.75
		c-19.63-6.31-30.29-21.6-31.55-44.59C168.51,331.59,167.95,320.23,167.95,310.42z M202.45,339.31
		c1.12,11.08,6.03,17.39,17.67,20.75c7.15,2.1,20.75,3.09,35.9,3.09c15.01,0,28.75-0.98,35.9-3.09
		c11.64-3.37,16.55-9.68,17.67-20.75c0.98-10.52,1.12-18.37,1.12-28.89s-0.14-18.37-1.12-28.89c-1.12-11.08-6.03-17.39-17.67-20.75
		c-7.15-2.1-20.9-3.09-35.9-3.09c-15.15,0-28.75,0.98-35.9,3.09c-11.64,3.37-16.55,9.68-17.67,20.75
		c-0.98,10.52-1.12,18.37-1.12,28.89C201.33,320.93,201.47,328.79,202.45,339.31z"/>
</g>
</svg>
