<?xml version="1.0" encoding="utf-8"?>
<!-- Generator: Adobe Illustrator 26.5.0, SVG Export Plug-In . SVG Version: 6.00 Build 0)  -->
<svg version="1.1" id="Layer_1" xmlns="http://www.w3.org/2000/svg" xmlns:xlink="http://www.w3.org/1999/xlink" x="0px" y="0px"
	 viewBox="0 0 512 512" style="enable-background:new 0 0 512 512;" xml:space="preserve">
<style type="text/css">
	.st0{fill:#00ADEF;}
	.st1{fill:#005BAA;}
	.st2{fill:#FFFFFF;}
</style>
<g id="XMLID_36_">
	<rect id="XMLID_38_" y="112.06" width="512" height="287.98"/>
	<rect id="XMLID_42_" x="47.27" y="261.03" class="st0" width="89.35" height="68.45"/>
	<rect id="XMLID_43_" x="155.84" y="260.89" class="st0" width="89.35" height="68.45"/>
	<rect id="XMLID_44_" x="264" y="260.47" class="st1" width="89.35" height="68.45"/>
	<rect id="XMLID_45_" x="376.5" y="261.03" class="st2" width="89.35" height="68.45"/>
	<path id="XMLID_46_" class="st2" d="M89.21,183.6H72.94c-19.36,1.4-25.67,5.89-27.21,11.64v33.67c4.35,11.64,18.1,11.5,30.72,12.91
		h30.44c13.19-0.56,24.97-2.38,27.63-12.62V214.6c-0.42-1.54-0.98-2.67-2.81-2.81h-28.48c-2.67-0.14-3.93,1.54-4.63,3.79v1.68
		c0.84,1.12,1.12,2.38,3.23,3.23h19.78v7.57c-3.37,3.23-8.14,4.21-13.47,4.63H74.63c-6.45-0.42-13.05-0.56-16.27-5.47v-29.74
		c0.56-2.52,2.52-4.91,15.99-6.17h15.15c2.52-0.28,2.81-1.82,3.23-3.23v-1.54C92.3,185.28,92.44,184.02,89.21,183.6L89.21,183.6z"/>
	<path id="XMLID_49_" class="st2" d="M201.15,195.52h-28.9l0,0c-16.83,1.82-23,6.87-24.83,13.19v19.36
		c1.26,8.14,9.4,12.34,23.43,13.61h33.67c10.52-1.26,18.52-4.63,21.04-12.06v-21.04C222.33,197.21,211.95,196.22,201.15,195.52z
		 M213.22,227.36c-3.65,5.19-9.12,4.35-14.03,4.91H171.7c-6.87,0-9.54-2.38-11.36-5.33v-17.67c1.82-3.23,6.17-5.05,14.17-5.19l0,0
		h24.55c9.12,0,12.34,1.96,14.17,4.91V227.36z"/>
	<path id="XMLID_53_" class="st2" d="M298.22,182.06h-55.97c-3.37,0.56-4.07,2.24-4.07,4.35v50.92h-0.14
		c0.28,2.52,1.4,3.09,2.95,3.09H248c2.81,0,3.09-1.68,3.09-3.23v-17.67h52.18c10.38-1.26,22.16-1.12,24.69-13.05v-13.05
		C323.19,183.18,310.29,183.32,298.22,182.06z M315.2,205.62c-2.52,2.81-5.19,5.89-11.64,5.33h-51.62v-20.06h48.96
		c6.59,0.42,13.19,0.98,14.31,4.63L315.2,205.62L315.2,205.62z"/>
	<path id="XMLID_54_" class="st2" d="M340.44,237.74v-30.58c1.82-6.59,8.28-10.66,20.48-11.78h13.05c1.96,0.28,3.09,1.4,3.37,3.37
		v2.24c-0.98,1.12-2.1,1.82-3.51,2.1h-13.61c-4.21,0.84-5.89,2.52-7.15,4.21v30.3c-0.42,1.4-0.98,2.81-2.95,2.95h-7.29
		C341.43,239.99,340.59,239.29,340.44,237.74L340.44,237.74z"/>
	<path id="XMLID_60_" class="st2" d="M442.14,194.96h-37.17v0.14c-13.05,2.95-17.81,7.57-18.8,12.91l-0.14,19.5
		c1.26,8.98,11.08,11.64,22.86,12.91h33.81c9.26,0,17.81-1.82,21.46-12.06v-20.48C462.62,199.73,455.19,195.52,442.14,194.96z
		 M450.98,226.66c0,4.35-7.29,3.93-11.5,5.75h-28.76c-5.61-0.56-9.4-1.96-11.92-5.05v-17.39c0-3.51,5.47-5.47,12.34-6.59l0,0h28.34
		c4.35,1.26,10.38,1.12,11.5,4.21C450.98,207.59,450.98,226.66,450.98,226.66z"/>
	<path id="XMLID_61_" class="st2" d="M470.48,236.2v0.56c1.12,0,2.1,0.42,2.81,1.12c0.7,0.7,1.12,1.68,1.12,2.81
		c0,1.12-0.42,2.1-1.12,2.81c-0.7,0.7-1.68,1.12-2.81,1.12s-2.1-0.42-2.81-1.12c-0.7-0.7-1.12-1.68-1.12-2.81
		c0-1.12,0.42-2.1,1.12-2.81c0.7-0.7,1.68-1.12,2.81-1.12V236.2v-0.56c-2.95,0-5.19,2.38-5.19,5.19c0,2.95,2.38,5.19,5.19,5.19
		c2.95,0,5.19-2.38,5.19-5.19c0-2.95-2.38-5.19-5.19-5.19V236.2z"/>
	<path id="XMLID_68_" class="st2" d="M471.18,240.83c0.14,0,0.28,0.14,0.42,0.28c0.14,0.14,0.28,0.42,0.42,0.7l0.7,1.54h-0.7
		l-0.7-1.4c-0.14-0.42-0.28-0.56-0.56-0.7c-0.14-0.14-0.42-0.14-0.7-0.14h-0.84v2.24h-0.7v-5.33h1.68c0.56,0,1.12,0.14,1.4,0.42
		c0.28,0.28,0.42,0.7,0.42,1.12c0,0.28-0.14,0.56-0.28,0.84C471.6,240.69,471.46,240.83,471.18,240.83L471.18,240.83z
		 M469.36,238.59v1.96h0.98c0.28,0,0.56-0.14,0.84-0.28c0.14-0.14,0.28-0.42,0.28-0.7s-0.14-0.56-0.28-0.7
		c-0.14-0.14-0.42-0.28-0.7-0.28L469.36,238.59L469.36,238.59z"/>
</g>
</svg>
