<?xml version="1.0" encoding="utf-8"?>
<!-- Generator: Adobe Illustrator 24.1.1, SVG Export Plug-In . SVG Version: 6.00 Build 0)  -->
<svg version="1.1" id="Layer_1" xmlns="http://www.w3.org/2000/svg" xmlns:xlink="http://www.w3.org/1999/xlink" x="0px" y="0px"
	 viewBox="0 0 512 512" style="enable-background:new 0 0 512 512;" xml:space="preserve">
<g>
	<path d="M78.3,131c0,0-39.5,37.7-41.7,77.7v7.4c1.7,32.2,26.1,51.2,26.1,51.2c39,38.2,133.5,86.2,155.7,97l2.2-0.2l0.4-0.8v-0.9
		C160.4,230.5,78.3,131,78.3,131L78.3,131z M205.8,396.8c-0.4-1.7-2.1-1.7-2.1-1.7l-157.4,5.6c17,30.5,45.8,53.9,75.9,46.9
		c20.5-5.3,67.4-38,82.7-49.1l0.8-1.9V396.8z M207.6,380.2C138.4,333.4,4.5,262,4.5,262c-3.2,9.7-4.3,19.2-4.5,27.7v1.5
		C0,314,8.5,330,8.5,330c17.1,36.1,49.9,47,49.9,47c15,6.3,29.9,6.6,29.9,6.6c2.6,0.4,93.8,0,118.1,0l1.7-1.1v-1.2L207.6,380.2
		L207.6,380.2z M193.2,68.1c-31,7.9-53.2,35.2-54.8,67.2v8.7c0.7,12.8,3.4,22.4,3.4,22.4c14.1,61.8,82.4,163.2,97.1,184.5l2.2,0.7
		l1.2-2.2C265,123.4,218.7,63.2,218.7,63.2C211.8,63.6,193.2,68.1,193.2,68.1z M370.3,116.5c0,0-10.4-38.4-52-48.7
		c0,0-12.2-3-25-4.7c0,0-46.5,59.9-23.9,286.5c0.3,1.5,1.3,1.7,1.3,1.7c1.5,0.7,2.1-0.6,2.1-0.6c15.4-22,83.2-122.9,97.1-184.3
		C369.9,166.4,377.5,136.5,370.3,116.5L370.3,116.5z M308.1,395.3l-1.9,1l0.6,2.2c14.9,10.9,60.8,42.7,82.8,49.1
		c0,0,3.4,1.1,9.2,1.2h2.9c14.7-0.4,40.6-7.8,64-48.2l-157.8-5.3L308.1,395.3z M475,215.9c3-44-41.4-84.7-41.4-84.9
		c0,0-82.1,99.4-142.2,230.4l0.4,2.7l0.8,0.2h1.3c22.6-11.2,116.4-59.1,155.2-96.8C449.2,267.5,473.8,247.7,475,215.9L475,215.9z
		 M507.5,261.6c0,0-133.9,71.8-203.1,118.3c0,0-1.1,0.9-0.7,2.4l1.5,1.2c24.8,0,118.7,0,121-0.4c0,0,12.2-0.4,27.1-6.2
		c0,0,33.2-10.7,50.6-48.5C503.9,328.5,519.5,297.6,507.5,261.6L507.5,261.6z"/>
</g>
</svg>
