<?xml version="1.0" encoding="utf-8"?>
<!-- Generator: Adobe Illustrator 24.1.1, SVG Export Plug-In . SVG Version: 6.00 Build 0)  -->
<svg version="1.1" id="Layer_1" xmlns="http://www.w3.org/2000/svg" xmlns:xlink="http://www.w3.org/1999/xlink" x="0px" y="0px"
	 viewBox="0 0 512 512" style="enable-background:new 0 0 512 512;" xml:space="preserve">
<g>
	<path d="M432.1,243.7c-10.1-0.1-18.1,8.4-17.4,18.4c-0.3,10.1,7.7,18.4,17.7,18.5c10.1,0.1,18-8.4,17.4-18.5
		C450.1,252.1,442.1,243.7,432.1,243.7z M293.2,243.7c-10-0.1-18.1,8.4-17.3,18.4c-0.3,10.1,7.6,18.4,17.7,18.5
		c10,0.1,18-8.4,17.3-18.5C311.2,252.1,303.3,243.7,293.2,243.7z M143.7,242.5c-5.4-0.2-10.6,2.3-13.9,6.6
		c-3.3,4.6-4.6,10.2-3.7,15.7l31.5-13C155.3,246.1,149.7,242.5,143.7,242.5L143.7,242.5z M0,170.7v170.7h512V170.7H0z M106.8,295
		H47.5v-85.3h18.3v68.8h41L106.8,295z M145.6,281.7c6.9,0.1,13.7-2.3,18.8-7l11.4,8.8c-8.2,8.1-19.1,12.6-30.6,12.6
		c-19.6,1.9-36.8-13.2-37.3-32.8c-0.6-19.8,15.7-35.8,35.4-35c9.7-0.5,19.3,3.4,25.9,10.7c4.3,5.2,7.1,11.6,7.9,18.3L131,276.5
		C135,280.1,140.2,282,145.6,281.7L145.6,281.7z M249.7,295h-18.1v-37.4c-0.3-8-7.1-14.3-15.2-13.8c-8-0.5-14.8,5.8-14.9,13.8V295
		h-18v-65.7h18.1v9.4c5.1-6.6,13-10.4,21.3-10.5c14.8-0.8,27.2,11.2,26.7,26.1L249.7,295z M292.1,296.1
		c-29.9-1.3-43.7-37.7-22.1-58.5c21.6-20.7,57.5-5.4,57.5,24.5C327.4,281.4,311.3,296.8,292.1,296.1z M351.7,294.9l-27-65.7h20.6
		l16.3,44.8l16.3-44.8h20.6l-27.1,65.7H351.7z M430.9,296.1c-29.8-1.3-43.7-37.7-22.1-58.5c21.7-20.7,57.5-5.4,57.5,24.5
		C466.3,281.4,450.3,296.8,430.9,296.1z M473.6,287.2h-3v7.8h-1.8v-7.8h-2.9v-1.7h7.7V287.2z M485.2,295h-1.8v-6.8l-2.9,4.6h-0.3
		l-2.9-4.6v6.8h-1.7v-9.5h1.9l2.8,4.5l2.8-4.5h1.9L485.2,295z"/>
</g>
</svg>
