<svg id="Capa_1" data-name="Capa 1" xmlns="http://www.w3.org/2000/svg" viewBox="0 0 1500 768"><defs><style>.cls-1{fill:#023365;}.cls-2{fill:#00e6b2;}</style></defs><title>log</title><path class="cls-1" d="M797.62,328v73.43c0,18.9-6.55,34.89-19.27,47.25-12.36,12-26.9,18.17-44,18.17-18.54,0-34.53-6.18-47.25-18.9-12.72-12.36-18.9-27.62-18.9-45.8V324c0-6.55,1.81-11.27,5.45-14.91a17.86,17.86,0,0,1,13.08-5.45,17.58,17.58,0,0,1,12.73,5.09q5.44,6,5.45,15.27v78.51c0,8.36,2.54,15.26,8,20.72a28.24,28.24,0,0,0,20.72,8.36,27.75,27.75,0,0,0,18.54-7.27c5.82-5.82,8.72-13.09,8.72-22.54V324c0-6.55,1.82-11.27,5.09-14.91a17.88,17.88,0,0,1,13.09-5.45c7.27,0,12.72,2.91,16,9.09C796.89,315.67,797.62,320.75,797.62,328Z"/><path class="cls-1" d="M900.12,302.58c14.54,0,26.53,3.27,36.71,9.45,9.09,6.18,13.81,12.72,13.81,20,0,5.82-1.45,10.54-4.72,13.81a15.35,15.35,0,0,1-11.64,4.73,14.4,14.4,0,0,1-8.36-3.27c-2.9-2.18-5.81-4.36-8.36-6.54-6.54-5.09-12.72-7.64-18.17-7.64s-9.81,1.46-13.09,4.36a12.23,12.23,0,0,0-5.08,10.18c0,7.27,6.54,12.36,19.62,15.63,20.36,5.09,34.53,10.91,42.89,17.81,10.18,8,15.27,19.63,15.27,34.53s-5.45,27.26-16,37.08-24.36,14.54-40.71,14.54c-17.45,0-32-4-44-12.36-10.91-7.63-16.72-16.36-16.72-26.17,0-4.73,1.45-9.09,5.09-12.36a15.51,15.51,0,0,1,12-5.45c5.82,0,12,3.27,19.27,9.45,9.08,8,17.44,12.36,24.71,12.36a20.51,20.51,0,0,0,14.18-5.09q5.45-4.9,5.45-13.09,0-8.71-9.81-13.08c-2.19-1.09-10.18-4-24.72-8-14.54-4.36-24.72-9.09-30.9-14.54-7.63-6.54-11.26-16-11.26-28,0-14.17,5.08-25.8,15.26-34.53C870.68,306.94,883.76,302.58,900.12,302.58Z"/><path class="cls-1" d="M1037.15,324v42.52h59.25V324c0-6.55,1.81-11.27,5.45-14.91a18.1,18.1,0,0,1,13.45-5.45q8.17,0,13.08,5.45c3.64,3.64,5.09,8.73,5.09,14.91V445.79c0,6.54-1.82,11.27-5.45,14.9a18.41,18.41,0,0,1-26.17,0q-5.46-5.44-5.45-15.26V400h-59.25v45.44c0,6.54-1.82,11.27-5.45,15.26a18.41,18.41,0,0,1-26.17,0c-3.64-3.63-5.46-8.72-5.46-14.9V324c0-6.55,1.82-11.27,5.46-14.91a17.84,17.84,0,0,1,13.08-5.45,17.54,17.54,0,0,1,12.72,5.09C1035.33,312.39,1037.15,317.48,1037.15,324Z"/><path class="cls-1" d="M1297.76,337.84,1252,382.55l52.34,48.34c6.9,6.54,10.17,12.36,10.17,17.45a16.49,16.49,0,0,1-5.45,12.72,19,19,0,0,1-13.08,5.09c-5.09,0-10.54-2.91-16.72-8.73L1218.16,400v45.8c0,6.54-1.81,11.27-5.45,15.27a18.43,18.43,0,0,1-26.17,0q-5.44-5.46-5.45-15.27V323.66q0-9.81,5.45-15.26a17.83,17.83,0,0,1,13.09-5.46,17.56,17.56,0,0,1,12.72,5.09c3.63,4,5.45,9.09,5.45,15.63v42.17l53.43-53.8c6.18-6.18,12-9.45,17.08-9.45a17.58,17.58,0,0,1,12.73,5.09,16.72,16.72,0,0,1,5.08,12.72C1307.22,325.84,1303.94,331.66,1297.76,337.84Z"/><path class="cls-1" d="M1348.29,445.79V324c0-6.55,1.82-11.27,5.45-14.91a17.88,17.88,0,0,1,13.09-5.45,17.56,17.56,0,0,1,12.72,5.09q5.45,6,5.45,15.27V445.79c0,6.54-1.82,11.27-5.45,14.9a18.41,18.41,0,0,1-26.17,0C1350.11,457.06,1348.29,452,1348.29,445.79Z"/><path class="cls-1" d="M489.38,464.69a18.61,18.61,0,0,1-18.53-18.53V323.66a18.54,18.54,0,1,1,37.07,0V446.52A18.3,18.3,0,0,1,489.38,464.69Z"/><path class="cls-2" d="M659.13,523.58a18.81,18.81,0,0,1-12.72-5.09L519.55,396a18.31,18.31,0,0,1-.72-25.8l62.52-65.43a18.51,18.51,0,1,1,26.89,25.44l-49.79,52L672.22,492a18.44,18.44,0,0,1,.36,26.17A18.66,18.66,0,0,1,659.13,523.58Z"/><path class="cls-2" d="M384.7,292.4l-115.58,120c-6.18,6.54-16.72,6.54-23.27.36l-59.24-56.33A16.71,16.71,0,0,1,209.5,332l47.26,45.07,105-108.68a152,152,0,1,0,22.9,24ZM314.91,456H203.69a16.72,16.72,0,1,1,0-33.44H314.91a16.91,16.91,0,0,1,16.72,16.72A16.45,16.45,0,0,1,314.91,456Z"/></svg>