<?xml version="1.0" encoding="utf-8"?>
<!-- Generator: Adobe Illustrator 27.0.0, SVG Export Plug-In . SVG Version: 6.00 Build 0)  -->
<svg version="1.1" id="Layer_1" xmlns="http://www.w3.org/2000/svg" xmlns:xlink="http://www.w3.org/1999/xlink" x="0px" y="0px"
	 viewBox="0 0 512 512" style="enable-background:new 0 0 512 512;" xml:space="preserve">
<style type="text/css">
	.st0{fill:#222222;}
</style>
<g id="XMLID_1_">
	<polygon id="XMLID_3_" class="st0" points="232.29,241.65 232.29,300.85 218.55,300.85 218.55,208.27 279.85,270.13 279.85,210.51 
		293.45,210.51 293.45,303.51 	"/>
	<path id="XMLID_6_" class="st0" d="M373.97,206.86c-26.79,0-48.53,22.02-48.53,48.96c0,26.93,21.74,48.96,48.53,48.96
		c26.79,0,48.53-22.02,48.53-48.96C422.65,228.89,400.76,206.86,373.97,206.86z M373.97,290.89c-18.94,0-34.37-15.71-34.37-35.07
		s15.43-35.07,34.37-35.07s34.37,15.71,34.37,35.07C408.48,275.18,393.05,290.89,373.97,290.89z"/>
	<path id="XMLID_9_" class="st0" d="M138.03,206.86c-26.79,0-48.53,22.02-48.53,48.96c0,26.93,21.74,48.96,48.53,48.96
		s48.53-22.02,48.53-48.96S164.68,206.86,138.03,206.86z M138.03,290.89c-18.94,0-34.37-15.71-34.37-35.07s15.43-35.07,34.37-35.07
		s34.37,15.71,34.37,35.07C172.4,275.18,156.97,290.89,138.03,290.89z"/>
	<path id="XMLID_10_" class="st0" d="M29.88,262.83L29.88,262.83c-9.26-2.95-15.29-5.89-19.92-9.4C3.37,248.38,0,241.93,0,234.22
		c0-7.15,3.37-14.17,9.12-19.22c5.89-5.19,14.03-8,22.86-8c18.52,0,29.18,12.48,29.6,13.05l-11.22,7.72
		c-2.67-1.96-9.4-6.31-18.38-6.31c-11.08,0-17.81,6.59-17.81,13.05c0,4.49,2.38,9.4,19.92,15.01l0,0c9.12,2.95,15.29,5.75,19.92,9.4
		c6.59,5.05,9.96,11.5,9.96,19.22c0,7.15-3.37,14.17-9.12,19.22c-5.89,5.19-14.03,8-22.86,8c-18.52,0-29.18-12.48-29.6-13.05
		l11.22-7.72c2.67,1.96,9.4,6.31,18.38,6.31c11.22,0,17.81-6.59,17.81-13.05C49.8,273.35,47.41,268.44,29.88,262.83z"/>
	<path id="XMLID_11_" class="st0" d="M477.91,262.83L477.91,262.83c-9.26-2.95-15.29-5.89-19.92-9.4
		c-6.59-5.05-9.96-11.5-9.96-19.22c0-7.15,3.37-14.17,9.12-19.22c5.89-5.19,14.03-8,22.86-8c18.52,0,29.18,12.48,29.6,13.05
		l-11.22,7.72c-2.67-1.96-9.4-6.31-18.38-6.31c-11.22,0-17.81,6.59-17.81,13.05c0,4.49,2.38,9.4,19.92,15.01l0,0
		c9.12,2.95,15.29,5.75,19.92,9.4c6.59,5.05,9.96,11.5,9.96,19.22c0,7.15-3.37,14.17-9.12,19.22c-5.89,5.19-14.03,8-22.86,8
		c-18.52,0-29.18-12.48-29.6-13.05l11.22-7.72c2.67,1.96,9.4,6.31,18.38,6.31c11.22,0,17.81-6.59,17.81-13.05
		C497.83,273.35,495.45,268.44,477.91,262.83z"/>
</g>
</svg>
