<?xml version="1.0" encoding="utf-8"?>
<!-- Generator: Adobe Illustrator 24.1.1, SVG Export Plug-In . SVG Version: 6.00 Build 0)  -->
<svg version="1.1" id="Layer_1" xmlns="http://www.w3.org/2000/svg" xmlns:xlink="http://www.w3.org/1999/xlink" x="0px" y="0px"
	 viewBox="0 0 512 512" style="enable-background:new 0 0 512 512;" xml:space="preserve">
<g>
	<path d="M425.8,426.6c-3.7,0-6.8-3.1-6.8-6.8V92.2c0-3.7,3.1-6.8,6.8-6.8H505c3.8-0.1,7,3,7,6.8v327.6c0,3.8-3.2,6.9-7,6.8H425.8z
		 M293.1,426.6c0,0-6.3-1.9-6.3-6.8V218.7c0.8-26.4-20.5-48.3-47-48h-148c-8.6,0-6.4,6.4-6.4,6.4v242.7c0,5.7-6.4,6.8-6.4,6.8H7
		c-3.8,0.1-7-3-7-6.8V92.2c0-3.8,3.2-6.9,7-6.8h274.4c50.1,0.3,90.5,41,90.7,91.1l0.2,243.4c0,3.7-3,6.8-6.8,6.8L293.1,426.6z
		 M145.9,426.6c-3.5,0-6.4-2.8-6.4-6.4v-192c0-3.5,2.9-6.4,6.4-6.4h80.4c3.5,0.2,6.2,3,6.2,6.4v192c0,3.6-2.8,6.4-6.3,6.4H145.9z"/>
</g>
</svg>
